<svg width="32" height="32" viewBox="0 0 32 32" fill="none" xmlns="http://www.w3.org/2000/svg">
<rect x="0.5" y="0.5" width="31" height="30.9702" rx="3.5" fill="white" stroke="#DDE0E5"/>
<path d="M16.1125 18.6355C16.387 17.8587 17.1279 17.3022 17.9987 17.3022C18.8695 17.3022 19.6104 17.8587 19.8849 18.6355H22.6654V19.9688H19.8849C19.6104 20.7456 18.8695 21.3022 17.9987 21.3022C17.1279 21.3022 16.387 20.7456 16.1125 19.9688H9.33203V18.6355H16.1125ZM12.1125 11.9688C12.3871 11.192 13.1279 10.6355 13.9987 10.6355C14.8695 10.6355 15.6104 11.192 15.8849 11.9688H22.6654V13.3022H15.8849C15.6104 14.079 14.8695 14.6355 13.9987 14.6355C13.1279 14.6355 12.3871 14.079 12.1125 13.3022H9.33203V11.9688H12.1125ZM13.9987 13.3022C14.3669 13.3022 14.6654 13.0037 14.6654 12.6355C14.6654 12.2673 14.3669 11.9688 13.9987 11.9688C13.6305 11.9688 13.332 12.2673 13.332 12.6355C13.332 13.0037 13.6305 13.3022 13.9987 13.3022ZM17.9987 19.9688C18.3669 19.9688 18.6654 19.6704 18.6654 19.3022C18.6654 18.934 18.3669 18.6355 17.9987 18.6355C17.6305 18.6355 17.332 18.934 17.332 19.3022C17.332 19.6704 17.6305 19.9688 17.9987 19.9688Z" fill="#5C6677"/>
</svg>
