<svg width="28" height="24" viewBox="0 0 28 24" fill="none" xmlns="http://www.w3.org/2000/svg">
<path d="M6.51367 5.48438V16.3145C6.51367 17.1283 6.54948 17.6491 6.62109 17.877C6.69271 18.0983 6.84245 18.2806 7.07031 18.4238C7.29818 18.5671 7.66276 18.6387 8.16406 18.6387H8.4668V19H1.49414V18.6387H1.8457C2.41211 18.6387 2.81576 18.5736 3.05664 18.4434C3.29753 18.3132 3.46029 18.1341 3.54492 17.9062C3.62956 17.6784 3.67188 17.1478 3.67188 16.3145V9.44922C3.67188 8.83724 3.64258 8.45638 3.58398 8.30664C3.52539 8.15039 3.41471 8.02018 3.25195 7.91602C3.0957 7.80534 2.91341 7.75 2.70508 7.75C2.37305 7.75 1.9694 7.85417 1.49414 8.0625L1.31836 7.71094L6.19141 5.48438H6.51367ZM10.6152 19.2734V19C11.696 18.7526 12.6107 18.388 13.3594 17.9062C14.1146 17.4245 14.7103 16.8288 15.1465 16.1191C15.5892 15.4095 15.8984 14.5924 16.0742 13.668C15.6706 13.8763 15.3255 14.0228 15.0391 14.1074C14.7591 14.1855 14.4629 14.2246 14.1504 14.2246C13.1478 14.2246 12.3112 13.8633 11.6406 13.1406C10.9766 12.418 10.6445 11.4284 10.6445 10.1719C10.6445 9.29948 10.8236 8.50195 11.1816 7.7793C11.5462 7.05013 12.0638 6.48698 12.7344 6.08984C13.4049 5.6862 14.1016 5.48438 14.8242 5.48438C15.599 5.48438 16.3314 5.70573 17.0215 6.14844C17.7116 6.59115 18.2617 7.23242 18.6719 8.07227C19.082 8.91211 19.2871 9.86914 19.2871 10.9434C19.2871 12.3366 18.9518 13.6712 18.2812 14.9473C17.6172 16.2233 16.6243 17.2487 15.3027 18.0234C13.9811 18.7917 12.4186 19.2083 10.6152 19.2734ZM16.2207 12.8477C16.2858 12.1185 16.3184 11.4772 16.3184 10.9238C16.3184 9.73893 16.1816 8.63542 15.9082 7.61328C15.752 7.04688 15.5208 6.63021 15.2148 6.36328C15.0521 6.22005 14.8405 6.14844 14.5801 6.14844C14.2546 6.14844 14.0007 6.28841 13.8184 6.56836C13.5645 6.95247 13.4375 7.6849 13.4375 8.76562C13.4375 10.569 13.6523 11.8125 14.082 12.4961C14.362 12.9388 14.7396 13.1602 15.2148 13.1602C15.4688 13.1602 15.804 13.056 16.2207 12.8477Z" fill="#1B1E23"/>
<path fill-rule="evenodd" clip-rule="evenodd" d="M28 12.5H22V11.5H28V12.5Z" fill="#1B1E23"/>
<path fill-rule="evenodd" clip-rule="evenodd" d="M24.5 15L24.5 9L25.5 9L25.5 15L24.5 15Z" fill="#1B1E23"/>
</svg>
