<svg width="16" height="16" viewBox="0 0 16 16" fill="none" xmlns="http://www.w3.org/2000/svg">
<path fill-rule="evenodd" clip-rule="evenodd" d="M11.8318 4.10669H14.1564C14.7047 4.10669 15.1276 4.58965 15.0551 5.13318L13.832 14.3065C13.7719 14.757 13.3877 15.0934 12.9333 15.0934H3.06682C2.6124 15.0934 2.22816 14.757 2.1681 14.3065L0.944993 5.13318C0.872522 4.58965 1.29537 4.10669 1.84371 4.10669H4.16823C4.49524 2.28721 6.0864 0.906616 8.00002 0.906616C9.91364 0.906616 11.5048 2.28721 11.8318 4.10669ZM4.10669 5.49336H2.39195L3.48707 13.7067H12.513L13.6081 5.49336H11.8934V6.93328H10.5067V5.49336H5.49336V6.93328H4.10669V5.49336ZM5.59046 4.10669H10.4096C10.1089 3.0595 9.14392 2.29328 8.00002 2.29328C6.85613 2.29328 5.8912 3.0595 5.59046 4.10669Z" fill="white"/>
</svg>
