<svg width="24" height="24" viewBox="0 0 24 24" fill="none" xmlns="http://www.w3.org/2000/svg">
<g clip-path="url(#clip0_0_28)">
<path d="M21.707 20.293L17.171 15.757C18.5159 14.0515 19.1583 11.8967 18.9668 9.73327C18.7754 7.56984 17.7646 5.56129 16.1411 4.1185C14.5177 2.67571 12.4044 1.90773 10.2334 1.97161C8.06247 2.0355 5.998 2.92646 4.46225 4.46222C2.92649 5.99797 2.03553 8.06247 1.97165 10.2334C1.90776 12.4044 2.67577 14.5177 4.11856 16.1411C5.56135 17.7645 7.56987 18.7753 9.7333 18.9668C11.8967 19.1582 14.0516 18.5158 15.757 17.171L20.2931 21.707L21.707 20.293ZM10.5 17C9.21445 17 7.95774 16.6188 6.88882 15.9045C5.8199 15.1903 4.98681 14.1752 4.49484 12.9875C4.00287 11.7997 3.8741 10.4928 4.1249 9.2319C4.37571 7.97102 4.99479 6.81285 5.90384 5.9038C6.81288 4.99476 7.97108 4.37571 9.23196 4.1249C10.4928 3.8741 11.7997 4.00281 12.9875 4.49478C14.1752 4.98675 15.1903 5.81987 15.9046 6.88879C16.6188 7.95771 17 9.21442 17 10.5C16.9979 12.2233 16.3124 13.8753 15.0939 15.0938C13.8754 16.3124 12.2233 16.9979 10.5 17Z" fill="#1B1E23"/>
</g>
<defs>
<clipPath id="clip0_0_28">
<rect width="24" height="24" fill="white"/>
</clipPath>
</defs>
</svg>
