<svg width="20" height="20" viewBox="0 0 20 20" fill="none" xmlns="http://www.w3.org/2000/svg">
<path fill-rule="evenodd" clip-rule="evenodd" d="M8.51019 0C3.81006 0 0 3.81049 0 8.5108C0 13.2111 3.81006 17.0216 8.51019 17.0216C10.4967 17.0216 12.3243 16.3409 13.7724 15.2L18.572 20L20.0002 18.5719L15.2003 13.7716C16.3403 12.3237 17.0204 10.4966 17.0204 8.5108C17.0204 3.81049 13.2103 0 8.51019 0ZM2.01972 8.5108C2.01972 4.9258 4.92568 2.01972 8.51019 2.01972C12.0947 2.01972 15.0007 4.9258 15.0007 8.5108C15.0007 12.0958 12.0947 15.0019 8.51019 15.0019C4.92568 15.0019 2.01972 12.0958 2.01972 8.5108Z" fill="#1B1E23"/>
</svg>
